<svg xmlns="http://www.w3.org/2000/svg" viewBox="0 0 64 64" width="64" height="64">
  <defs>
    <linearGradient id="t" x1="0" y1="1" x2="1" y2="0">
      <stop offset="0%" stop-color="#0E8F86"/>
      <stop offset="100%" stop-color="#23D2B1"/>
    </linearGradient>
  </defs>
  <rect width="64" height="64" rx="14" fill="#0D1B5C"/>
  <path d="M16 12h28a5 5 0 0 1 5 5v20a5 5 0 0 1-5 5H30l-10 7v-7h-4a5 5 0 0 1-5-5V17a5 5 0 0 1 5-5Z"
        fill="none" stroke="#ffffff" stroke-width="2.6" stroke-linejoin="round"/>
  <rect x="20" y="28" width="5" height="9" rx="1.3" fill="#9cc2e8"/>
  <rect x="29" y="23" width="5" height="14" rx="1.3" fill="#2B78C6"/>
  <rect x="38" y="19" width="5" height="18" rx="1.3" fill="url(#t)"/>
  <path d="M19 31l8-6 6 4 11-10" fill="none" stroke="url(#t)" stroke-width="2.6" stroke-linecap="round" stroke-linejoin="round"/>
</svg>
